G04*
G04 #@! TF.GenerationSoftware,Altium Limited,Altium Designer,20.2.3 (150)*
G04*
G04 Layer_Color=16711935*
%FSLAX25Y25*%
%MOIN*%
G70*
G04*
G04 #@! TF.SameCoordinates,BB737A17-BA75-4855-ABE7-94ACFEC41E84*
G04*
G04*
G04 #@! TF.FilePolarity,Positive*
G04*
G01*
G75*
%ADD10C,0.00787*%
%ADD11C,0.00394*%
D10*
X336193Y250937D02*
X336250Y249957D01*
X336421Y248990D01*
X336702Y248049D01*
X337091Y247147D01*
X337582Y246297D01*
X338169Y245509D01*
X338843Y244794D01*
X339595Y244163D01*
X340415Y243623D01*
X341293Y243183D01*
X342216Y242847D01*
X343171Y242620D01*
X344147Y242506D01*
X345129D01*
X346104Y242620D01*
X347060Y242847D01*
X347983Y243183D01*
X348860Y243623D01*
X349681Y244163D01*
X350433Y244794D01*
X351107Y245509D01*
X351693Y246297D01*
X352184Y247147D01*
X352573Y248049D01*
X352855Y248990D01*
X353026Y249957D01*
X353083Y250937D01*
Y254874D02*
X353026Y255854D01*
X352855Y256821D01*
X352573Y257762D01*
X352184Y258664D01*
X351693Y259515D01*
X351107Y260302D01*
X350433Y261017D01*
X349681Y261648D01*
X348860Y262188D01*
X347983Y262628D01*
X347060Y262964D01*
X346104Y263191D01*
X345129Y263305D01*
X344147D01*
X343171Y263191D01*
X342216Y262964D01*
X341293Y262628D01*
X340415Y262188D01*
X339595Y261648D01*
X338843Y261017D01*
X338169Y260302D01*
X337582Y259515D01*
X337091Y258664D01*
X336702Y257762D01*
X336421Y256821D01*
X336250Y255854D01*
X336193Y254874D01*
X207630Y312158D02*
X231252D01*
Y298378D02*
Y312158D01*
X207630Y298378D02*
X231252D01*
X207630D02*
Y312158D01*
X336193Y250937D02*
Y254874D01*
X353083Y250937D02*
Y254874D01*
X359461Y389008D02*
X388709Y363008D01*
X321957Y389008D02*
X359461D01*
X292709Y363008D02*
X321957Y389008D01*
X292709Y274307D02*
Y363008D01*
Y274307D02*
X388709D01*
Y363008D01*
D11*
X224559Y232354D02*
X223725Y232921D01*
X222836Y233399D01*
X221903Y233783D01*
X220935Y234069D01*
X219943Y234253D01*
X218937Y234334D01*
X217929Y234312D01*
X216928Y234185D01*
X215945Y233956D01*
X214991Y233627D01*
X214077Y233202D01*
X213211Y232684D01*
X212402Y232080D01*
X211661Y231396D01*
X210994Y230639D01*
X210408Y229817D01*
X209910Y228940D01*
X209505Y228016D01*
X209198Y227055D01*
X208991Y226067D01*
X208887Y225063D01*
Y224055D01*
X208991Y223051D01*
X209198Y222063D01*
X209505Y221102D01*
X209910Y220178D01*
X210408Y219301D01*
X210994Y218479D01*
X211661Y217722D01*
X212402Y217038D01*
X213211Y216434D01*
X214077Y215917D01*
X214991Y215491D01*
X215945Y215162D01*
X216928Y214933D01*
X217929Y214806D01*
X218938Y214784D01*
X219943Y214865D01*
X220935Y215049D01*
X221903Y215335D01*
X222836Y215719D01*
X223725Y216197D01*
X224559Y216764D01*
X296016Y247787D02*
X295752Y248772D01*
X295031Y249492D01*
X294047Y249756D01*
X293063Y249492D01*
X292342Y248772D01*
X292079Y247787D01*
X292342Y246803D01*
X293063Y246083D01*
X294047Y245819D01*
X295031Y246083D01*
X295752Y246803D01*
X296016Y247787D01*
X273673Y210878D02*
Y214618D01*
X280563Y210878D02*
Y214618D01*
X273673Y210878D02*
X280563D01*
X273673Y214618D02*
X280563D01*
X260878Y372295D02*
Y376035D01*
X253988Y372295D02*
Y376035D01*
X260878D01*
X253988Y372295D02*
X260878D01*
X287650D02*
Y376035D01*
X280760Y372295D02*
Y376035D01*
X287650D01*
X280760Y372295D02*
X287650D01*
X204972Y291980D02*
X208713D01*
X204972Y298870D02*
X208713D01*
Y291980D02*
Y298870D01*
X204972Y291980D02*
Y298870D01*
X240406Y313929D02*
X244146D01*
X240406Y307039D02*
X244146D01*
X240406D02*
Y313929D01*
X244146Y307039D02*
Y313929D01*
X240406Y301429D02*
X244146D01*
X240406Y294539D02*
X244146D01*
X240406D02*
Y301429D01*
X244146Y294539D02*
Y301429D01*
X271902Y288732D02*
X275642D01*
X271902Y295622D02*
X275642D01*
Y288732D02*
Y295622D01*
X271902Y288732D02*
Y295622D01*
X260091Y342866D02*
X263831D01*
X260091Y335976D02*
X263831D01*
X260091D02*
Y342866D01*
X263831Y335976D02*
Y342866D01*
X346508Y232138D02*
Y239028D01*
X342768Y232138D02*
Y239028D01*
Y232138D02*
X346508D01*
X342768Y239028D02*
X346508D01*
X334894Y225740D02*
X338634D01*
X334894Y232630D02*
X338634D01*
Y225740D02*
Y232630D01*
X334894Y225740D02*
Y232630D01*
X362453Y239224D02*
X366193D01*
X362453Y232335D02*
X366193D01*
X362453D02*
Y239224D01*
X366193Y232335D02*
Y239224D01*
X240406Y225051D02*
X244146D01*
X240406Y231941D02*
X244146D01*
Y225051D02*
Y231941D01*
X240406Y225051D02*
Y231941D01*
Y257236D02*
X244146D01*
X240406Y264126D02*
X244146D01*
Y257236D02*
Y264126D01*
X240406Y257236D02*
Y264126D01*
X267965Y225051D02*
X271705D01*
X267965Y231941D02*
X271705D01*
Y225051D02*
Y231941D01*
X267965Y225051D02*
Y231941D01*
X267965Y247689D02*
X271705D01*
X267965Y240799D02*
X271705D01*
X267965D02*
Y247689D01*
X271705Y240799D02*
Y247689D01*
X224559Y216764D02*
Y232354D01*
X276724Y308811D02*
Y322590D01*
X251134Y308811D02*
X276724D01*
X251134D02*
Y322590D01*
X276724D01*
X267669D02*
X276724Y313535D01*
X246508Y219539D02*
Y265012D01*
X265602Y219539D02*
Y265012D01*
X246508Y219539D02*
X265602D01*
X246508Y265012D02*
X265602D01*
X290504Y223772D02*
X318063D01*
X290504Y251331D02*
X318063D01*
Y223772D02*
Y251331D01*
X290504Y223772D02*
Y251331D01*
M02*
