G04*
G04 #@! TF.GenerationSoftware,Altium Limited,Altium Designer,20.2.3 (150)*
G04*
G04 Layer_Color=16711935*
%FSLAX25Y25*%
%MOIN*%
G70*
G04*
G04 #@! TF.SameCoordinates,03438412-7A25-4BEF-A10F-2466806E8FA3*
G04*
G04*
G04 #@! TF.FilePolarity,Negative*
G04*
G01*
G75*
%ADD27P,0.13650X8X22.5*%
%ADD28C,0.07887*%
%ADD29C,0.05131*%
%ADD30O,0.08674X0.04737*%
%ADD31O,0.08674X0.04737*%
%ADD32C,0.06706*%
%ADD33R,0.06706X0.06706*%
%ADD34R,0.06706X0.06706*%
%ADD35C,0.06434*%
G04:AMPARAMS|DCode=36|XSize=90.68mil|YSize=67.06mil|CornerRadius=18.76mil|HoleSize=0mil|Usage=FLASHONLY|Rotation=90.000|XOffset=0mil|YOffset=0mil|HoleType=Round|Shape=RoundedRectangle|*
%AMROUNDEDRECTD36*
21,1,0.09068,0.02953,0,0,90.0*
21,1,0.05315,0.06706,0,0,90.0*
1,1,0.03753,0.01476,0.02657*
1,1,0.03753,0.01476,-0.02657*
1,1,0.03753,-0.01476,-0.02657*
1,1,0.03753,-0.01476,0.02657*
%
%ADD36ROUNDEDRECTD36*%
G04:AMPARAMS|DCode=37|XSize=90.68mil|YSize=67.06mil|CornerRadius=18.76mil|HoleSize=0mil|Usage=FLASHONLY|Rotation=0.000|XOffset=0mil|YOffset=0mil|HoleType=Round|Shape=RoundedRectangle|*
%AMROUNDEDRECTD37*
21,1,0.09068,0.02953,0,0,0.0*
21,1,0.05315,0.06706,0,0,0.0*
1,1,0.03753,0.02657,-0.01476*
1,1,0.03753,-0.02657,-0.01476*
1,1,0.03753,-0.02657,0.01476*
1,1,0.03753,0.02657,0.01476*
%
%ADD37ROUNDEDRECTD37*%
%ADD38C,0.05800*%
%ADD56R,0.04540X0.04147*%
%ADD57R,0.04737X0.04343*%
%ADD58R,0.04343X0.03950*%
%ADD59R,0.04147X0.04540*%
D27*
X384008Y384008D02*
D03*
X206842Y206842D02*
D03*
X263929Y354480D02*
D03*
X384008Y250150D02*
D03*
D28*
X206842Y305268D02*
D03*
X232039D02*
D03*
D29*
X344638Y259598D02*
D03*
Y246213D02*
D03*
D30*
X218653Y229559D02*
D03*
Y219559D02*
D03*
D31*
Y224559D02*
D03*
D32*
X366449Y222748D02*
D03*
Y212748D02*
D03*
X356449Y222748D02*
D03*
Y212748D02*
D03*
X346449Y222748D02*
D03*
X224559Y246055D02*
D03*
Y256055D02*
D03*
Y266055D02*
D03*
D33*
X346449Y212748D02*
D03*
D34*
X224559Y276055D02*
D03*
D35*
X384008Y358606D02*
D03*
Y350701D02*
D03*
Y342795D02*
D03*
Y334890D02*
D03*
Y326984D02*
D03*
Y319079D02*
D03*
Y311173D02*
D03*
Y303268D02*
D03*
Y295362D02*
D03*
Y287457D02*
D03*
X297409D02*
D03*
Y295362D02*
D03*
Y303268D02*
D03*
Y311173D02*
D03*
Y319079D02*
D03*
Y326984D02*
D03*
Y334890D02*
D03*
Y342795D02*
D03*
Y350701D02*
D03*
Y358606D02*
D03*
D36*
X206055Y346606D02*
D03*
D37*
X224559Y358417D02*
D03*
Y334795D02*
D03*
D38*
X336764Y238339D02*
D03*
X328351Y242112D02*
D03*
X273772Y336764D02*
D03*
X281646Y295425D02*
D03*
X275740Y366291D02*
D03*
X382039Y228496D02*
D03*
X248181Y295425D02*
D03*
X255000Y336307D02*
D03*
X259992Y366291D02*
D03*
X303559Y261961D02*
D03*
X356892Y245934D02*
D03*
X242255Y219268D02*
D03*
X242276Y252118D02*
D03*
X279677Y244244D02*
D03*
X275371Y232066D02*
D03*
X275119Y240342D02*
D03*
X279677Y236244D02*
D03*
X276736Y251146D02*
D03*
D56*
X206842Y292866D02*
D03*
Y297984D02*
D03*
X242276Y300543D02*
D03*
Y295425D02*
D03*
X364323Y238339D02*
D03*
Y233221D02*
D03*
D57*
X242276Y313142D02*
D03*
Y307827D02*
D03*
X273772Y289520D02*
D03*
Y294835D02*
D03*
X261961Y342079D02*
D03*
Y336764D02*
D03*
X336764Y226528D02*
D03*
Y231842D02*
D03*
X242276Y225839D02*
D03*
Y231153D02*
D03*
Y258024D02*
D03*
Y263339D02*
D03*
X269835Y225839D02*
D03*
Y231153D02*
D03*
Y246902D02*
D03*
Y241587D02*
D03*
D58*
X344638Y232827D02*
D03*
Y238339D02*
D03*
D59*
X254874Y374165D02*
D03*
X259992D02*
D03*
X269835D02*
D03*
X274953D02*
D03*
M02*
