G04*
G04 #@! TF.GenerationSoftware,Altium Limited,Altium Designer,20.2.3 (150)*
G04*
G04 Layer_Color=8421504*
%FSLAX25Y25*%
%MOIN*%
G70*
G04*
G04 #@! TF.SameCoordinates,BB737A17-BA75-4855-ABE7-94ACFEC41E84*
G04*
G04*
G04 #@! TF.FilePolarity,Positive*
G04*
G01*
G75*
%ADD16R,0.05906X0.05906*%
%ADD17R,0.03740X0.06890*%
%ADD18R,0.12598X0.06890*%
%ADD19R,0.08268X0.22047*%
%ADD20O,0.02362X0.07677*%
%ADD21O,0.07677X0.02362*%
D16*
X283614Y212748D02*
D03*
X269835D02*
D03*
X250150Y374165D02*
D03*
X263929D02*
D03*
X277709D02*
D03*
X291488D02*
D03*
D17*
X272984Y328102D02*
D03*
X263929D02*
D03*
X254874D02*
D03*
D18*
X263929Y303299D02*
D03*
D19*
X256055Y260976D02*
D03*
Y223575D02*
D03*
D20*
X293260Y254283D02*
D03*
X296409D02*
D03*
X299559D02*
D03*
X302709D02*
D03*
X305858D02*
D03*
X309008D02*
D03*
X312157D02*
D03*
X315307D02*
D03*
Y220819D02*
D03*
X312157D02*
D03*
X309008D02*
D03*
X305858D02*
D03*
X302709D02*
D03*
X299559D02*
D03*
X296409D02*
D03*
X293260D02*
D03*
D21*
X321016Y248575D02*
D03*
Y245425D02*
D03*
Y242276D02*
D03*
Y239126D02*
D03*
Y235976D02*
D03*
Y232827D02*
D03*
Y229677D02*
D03*
Y226528D02*
D03*
X287551D02*
D03*
Y229677D02*
D03*
Y232827D02*
D03*
Y235976D02*
D03*
Y239126D02*
D03*
Y242276D02*
D03*
Y245425D02*
D03*
Y248575D02*
D03*
M02*
