G04*
G04 #@! TF.GenerationSoftware,Altium Limited,Altium Designer,20.2.3 (150)*
G04*
G04 Layer_Physical_Order=1*
G04 Layer_Color=255*
%FSLAX25Y25*%
%MOIN*%
G70*
G04*
G04 #@! TF.SameCoordinates,04B84300-0102-4E37-A102-6184F8F0BFC0*
G04*
G04*
G04 #@! TF.FilePolarity,Positive*
G04*
G01*
G75*
%ADD14C,0.01000*%
%ADD16R,0.03543X0.03740*%
%ADD17R,0.03740X0.06890*%
%ADD18R,0.12598X0.06890*%
%ADD19R,0.08268X0.22047*%
%ADD20O,0.02362X0.07677*%
%ADD21O,0.07677X0.02362*%
%ADD40C,0.02000*%
%ADD41P,0.12784X8X22.5*%
%ADD42C,0.07087*%
%ADD43C,0.04331*%
%ADD44O,0.07874X0.03937*%
%ADD45O,0.07874X0.03937*%
%ADD46C,0.05906*%
%ADD47R,0.05906X0.05906*%
%ADD48R,0.05906X0.05906*%
%ADD49C,0.05634*%
G04:AMPARAMS|DCode=50|XSize=82.68mil|YSize=59.06mil|CornerRadius=14.76mil|HoleSize=0mil|Usage=FLASHONLY|Rotation=90.000|XOffset=0mil|YOffset=0mil|HoleType=Round|Shape=RoundedRectangle|*
%AMROUNDEDRECTD50*
21,1,0.08268,0.02953,0,0,90.0*
21,1,0.05315,0.05906,0,0,90.0*
1,1,0.02953,0.01476,0.02657*
1,1,0.02953,0.01476,-0.02657*
1,1,0.02953,-0.01476,-0.02657*
1,1,0.02953,-0.01476,0.02657*
%
%ADD50ROUNDEDRECTD50*%
G04:AMPARAMS|DCode=51|XSize=82.68mil|YSize=59.06mil|CornerRadius=14.76mil|HoleSize=0mil|Usage=FLASHONLY|Rotation=0.000|XOffset=0mil|YOffset=0mil|HoleType=Round|Shape=RoundedRectangle|*
%AMROUNDEDRECTD51*
21,1,0.08268,0.02953,0,0,0.0*
21,1,0.05315,0.05906,0,0,0.0*
1,1,0.02953,0.02657,-0.01476*
1,1,0.02953,-0.02657,-0.01476*
1,1,0.02953,-0.02657,0.01476*
1,1,0.02953,0.02657,0.01476*
%
%ADD51ROUNDEDRECTD51*%
%ADD52C,0.05000*%
D14*
X286567Y367276D02*
Y374165D01*
Y367276D02*
X287551Y366291D01*
X272925Y212779D02*
X272956Y212748D01*
X279677D01*
X285583D02*
Y214717D01*
X286567Y374165D02*
X287551Y373181D01*
X259992Y366291D02*
Y374165D01*
X285583Y214717D02*
X289528Y218661D01*
X292631D01*
X293260Y219291D01*
Y220819D01*
X273772Y328890D02*
Y336764D01*
X272984Y328102D02*
X273772Y328890D01*
X321016Y226528D02*
X324042D01*
X324617Y227102D01*
X324890D01*
X324988Y227201D01*
X358293D01*
X344638Y246213D02*
X356614D01*
X338732D02*
X344638D01*
X321016Y232827D02*
X321075Y232886D01*
X325406D01*
X338732Y246213D01*
X328102Y229677D02*
X336764Y238339D01*
X321016Y229677D02*
X328102D01*
X327730Y242112D02*
X328351D01*
X325213Y239595D02*
X327730Y242112D01*
X321016Y239126D02*
X324042D01*
X324510Y239595D01*
X325213D01*
X350023Y208295D02*
X350902Y209174D01*
X321382Y208295D02*
X350023D01*
X350876Y216347D02*
Y217176D01*
X350902Y209174D02*
Y216322D01*
X350876Y216347D02*
X350902Y216322D01*
X350876Y217176D02*
X356449Y222748D01*
X315307Y220819D02*
X323378Y212748D01*
X346449D01*
X312626Y217051D02*
X321382Y208295D01*
X312157Y217793D02*
Y220819D01*
X312626Y217051D02*
Y217324D01*
X312157Y217793D02*
X312626Y217324D01*
X277709Y219239D02*
Y219343D01*
X263929Y236370D02*
Y246213D01*
Y236370D02*
X272233Y228066D01*
X256055Y222873D02*
X259689Y219239D01*
X277709D01*
X256055Y254087D02*
X263929Y246213D01*
X277709Y219343D02*
X284894Y226528D01*
X279795Y229677D02*
X287551D01*
X278184Y228066D02*
X279795Y229677D01*
X272233Y228066D02*
X278184D01*
X358293Y227201D02*
X360902Y224592D01*
X302709Y254283D02*
X302969Y254544D01*
Y261371D01*
X303559Y261961D01*
X360902Y217201D02*
Y224592D01*
X356449Y212748D02*
X360902Y217201D01*
X356614Y246213D02*
X356892Y245934D01*
X297409Y350528D02*
Y350701D01*
X299559Y254283D02*
Y271211D01*
X316081Y287733D01*
Y331856D01*
X297409Y350528D02*
X316081Y331856D01*
X297409Y342795D02*
X314081Y326124D01*
Y288561D02*
Y326124D01*
X296409Y270889D02*
X314081Y288561D01*
X296409Y254283D02*
Y270889D01*
X224559Y266055D02*
X239626D01*
X247071Y273500D01*
X276701D01*
X293260Y256941D01*
Y254283D02*
Y256941D01*
X242276Y252118D02*
X254087D01*
X256055Y254087D01*
Y260976D01*
Y222902D02*
Y223575D01*
X252421Y219268D02*
X256055Y222902D01*
X242255Y219268D02*
X252421D01*
X284894Y226528D02*
X287551D01*
X275119Y240342D02*
X275217Y240244D01*
X279677Y236244D02*
X279803D01*
X281334Y248244D02*
X283892Y245686D01*
X275433Y232127D02*
X281091D01*
X279638Y248244D02*
X281334D01*
X282452Y239126D02*
X287551D01*
X279803Y236244D02*
X279874Y236173D01*
X282213Y242276D02*
X287551D01*
X276736Y251146D02*
X279638Y248244D01*
X281334Y240244D02*
X282452Y239126D01*
X287291Y245686D02*
X287551Y245425D01*
X280244Y244244D02*
X282213Y242276D01*
X279874Y236173D02*
X287354D01*
X275371Y232066D02*
X275433Y232127D01*
X275217Y240244D02*
X281334D01*
X283892Y245686D02*
X287291D01*
X279677Y244244D02*
X280244D01*
X281791Y232827D02*
X287551D01*
X281091Y232127D02*
X281791Y232827D01*
X287354Y236173D02*
X287551Y235976D01*
D16*
X279677Y212748D02*
D03*
X285583D02*
D03*
X286567Y374165D02*
D03*
X280661D02*
D03*
X259992D02*
D03*
X254087D02*
D03*
D17*
X272984Y328102D02*
D03*
X263929D02*
D03*
X254874D02*
D03*
D18*
X263929Y303299D02*
D03*
D19*
X256055Y260976D02*
D03*
Y223575D02*
D03*
D20*
X293260Y254283D02*
D03*
X296409D02*
D03*
X299559D02*
D03*
X302709D02*
D03*
X305858D02*
D03*
X309008D02*
D03*
X312157D02*
D03*
X315307D02*
D03*
Y220819D02*
D03*
X312157D02*
D03*
X309008D02*
D03*
X305858D02*
D03*
X302709D02*
D03*
X299559D02*
D03*
X296409D02*
D03*
X293260D02*
D03*
D21*
X321016Y248575D02*
D03*
Y245425D02*
D03*
Y242276D02*
D03*
Y239126D02*
D03*
Y235976D02*
D03*
Y232827D02*
D03*
Y229677D02*
D03*
Y226528D02*
D03*
X287551D02*
D03*
Y229677D02*
D03*
Y232827D02*
D03*
Y235976D02*
D03*
Y239126D02*
D03*
Y242276D02*
D03*
Y245425D02*
D03*
Y248575D02*
D03*
D40*
X281260Y352898D02*
Y373780D01*
Y352898D02*
X286480Y347677D01*
X297409Y358606D01*
X281646Y342843D02*
X286480Y347677D01*
X254874Y328102D02*
Y337245D01*
X254426Y337693D02*
X254874Y337245D01*
X254426Y337693D02*
Y338640D01*
X254087Y338979D02*
Y372197D01*
Y338979D02*
X254426Y338640D01*
X281646Y318161D02*
Y342843D01*
X218653Y229559D02*
X219024Y229188D01*
X281646Y295425D02*
Y318161D01*
X263929Y303299D02*
X266783D01*
X281646Y318161D01*
X248181Y295425D02*
Y319835D01*
X254874Y326528D02*
Y328102D01*
X248181Y319835D02*
X254874Y326528D01*
D41*
X384008Y384008D02*
D03*
X206842Y206842D02*
D03*
X263929Y354480D02*
D03*
X384008Y250150D02*
D03*
D42*
X206842Y305268D02*
D03*
X232039D02*
D03*
D43*
X344638Y259598D02*
D03*
Y246213D02*
D03*
D44*
X218653Y229559D02*
D03*
Y219559D02*
D03*
D45*
Y224559D02*
D03*
D46*
X366449Y222748D02*
D03*
Y212748D02*
D03*
X356449Y222748D02*
D03*
Y212748D02*
D03*
X346449Y222748D02*
D03*
X224559Y246055D02*
D03*
Y256055D02*
D03*
Y266055D02*
D03*
D47*
X346449Y212748D02*
D03*
D48*
X224559Y276055D02*
D03*
D49*
X384008Y358606D02*
D03*
Y350701D02*
D03*
Y342795D02*
D03*
Y334890D02*
D03*
Y326984D02*
D03*
Y319079D02*
D03*
Y311173D02*
D03*
Y303268D02*
D03*
Y295362D02*
D03*
Y287457D02*
D03*
X297409D02*
D03*
Y295362D02*
D03*
Y303268D02*
D03*
Y311173D02*
D03*
Y319079D02*
D03*
Y326984D02*
D03*
Y334890D02*
D03*
Y342795D02*
D03*
Y350701D02*
D03*
Y358606D02*
D03*
D50*
X206055Y346606D02*
D03*
D51*
X224559Y358417D02*
D03*
Y334795D02*
D03*
D52*
X287551Y366291D02*
D03*
X272925Y212779D02*
D03*
X259992Y366291D02*
D03*
X382039Y228496D02*
D03*
X273772Y336764D02*
D03*
X336764Y238339D02*
D03*
X328351Y242112D02*
D03*
X281646Y295425D02*
D03*
X248181D02*
D03*
X255000Y336307D02*
D03*
X303559Y261961D02*
D03*
X356892Y245934D02*
D03*
X242255Y219268D02*
D03*
X242276Y252118D02*
D03*
X279677Y244244D02*
D03*
X275371Y232066D02*
D03*
X275119Y240342D02*
D03*
X279677Y236244D02*
D03*
X276736Y251146D02*
D03*
M02*
