G04*
G04 #@! TF.GenerationSoftware,Altium Limited,Altium Designer,20.2.3 (150)*
G04*
G04 Layer_Color=128*
%FSLAX25Y25*%
%MOIN*%
G70*
G04*
G04 #@! TF.SameCoordinates,8FFD640F-7F79-43F8-94F3-B7E4D242D2E5*
G04*
G04*
G04 #@! TF.FilePolarity,Positive*
G04*
G01*
G75*
%ADD52R,0.03740X0.03347*%
%ADD53R,0.03937X0.03543*%
%ADD54R,0.03543X0.03150*%
%ADD55R,0.03347X0.03740*%
D52*
X206842Y292866D02*
D03*
Y297984D02*
D03*
X242276Y300543D02*
D03*
Y295425D02*
D03*
X364323Y238339D02*
D03*
Y233221D02*
D03*
D53*
X242276Y313142D02*
D03*
Y307827D02*
D03*
X273772Y289520D02*
D03*
Y294835D02*
D03*
X261961Y342079D02*
D03*
Y336764D02*
D03*
X336764Y226528D02*
D03*
Y231842D02*
D03*
X242276Y225839D02*
D03*
Y231153D02*
D03*
Y258024D02*
D03*
Y263339D02*
D03*
X269835Y225839D02*
D03*
Y231153D02*
D03*
Y246902D02*
D03*
Y241587D02*
D03*
D54*
X344638Y232827D02*
D03*
Y238339D02*
D03*
D55*
X254874Y374165D02*
D03*
X259992D02*
D03*
X269835D02*
D03*
X274953D02*
D03*
M02*
