G04*
G04 #@! TF.GenerationSoftware,Altium Limited,Altium Designer,20.2.3 (150)*
G04*
G04 Layer_Color=128*
%FSLAX25Y25*%
%MOIN*%
G70*
G04*
G04 #@! TF.SameCoordinates,BB737A17-BA75-4855-ABE7-94ACFEC41E84*
G04*
G04*
G04 #@! TF.FilePolarity,Positive*
G04*
G01*
G75*
%ADD51R,0.03347X0.03740*%
%ADD52R,0.03740X0.03347*%
%ADD53R,0.03937X0.03543*%
%ADD54R,0.03543X0.03150*%
D51*
X274559Y212748D02*
D03*
X279677D02*
D03*
X259992Y374165D02*
D03*
X254874D02*
D03*
X286764D02*
D03*
X281646D02*
D03*
D52*
X206842Y292866D02*
D03*
Y297984D02*
D03*
X242276Y300543D02*
D03*
Y295425D02*
D03*
X364323Y238339D02*
D03*
Y233221D02*
D03*
D53*
X242276Y313142D02*
D03*
Y307827D02*
D03*
X273772Y289520D02*
D03*
Y294835D02*
D03*
X261961Y342079D02*
D03*
Y336764D02*
D03*
X336764Y226528D02*
D03*
Y231842D02*
D03*
X242276Y225839D02*
D03*
Y231153D02*
D03*
Y258024D02*
D03*
Y263339D02*
D03*
X269835Y225839D02*
D03*
Y231153D02*
D03*
Y246902D02*
D03*
Y241587D02*
D03*
D54*
X344638Y232827D02*
D03*
Y238339D02*
D03*
M02*
