M48
;Layer_Color=9474304
;FILE_FORMAT=2:5
INCH,TZ
;TYPE=PLATED
T1F00S00C0.02362
T2F00S00C0.02800
T3F00S00C0.03543
T4F00S00C0.03622
T6F00S00C0.04724
T7F00S00C0.11811
%
T01
X344638Y246213
Y259598
T02
X328351Y242112
X336764Y238339
X356892Y245934
X382039Y228496
X279677Y236244
Y244244
X275119Y240342
X275371Y232066
X276736Y251146
X242276Y252118
X242255Y219268
X248181Y295425
X281646
X303559Y261961
X273772Y336764
X255000Y336307
X259992Y366291
X275740
T03
X346449Y212748
X356449
X366449
Y222748
X356449
X346449
X218653Y224559
Y229559
Y219559
X224559Y246055
Y256055
Y266055
Y276055
T04
X384008Y287457
Y295362
Y303268
Y311173
X297409
Y303268
Y295362
Y287457
Y319079
Y326984
Y334890
Y342795
Y350701
Y358606
X384008
Y350701
Y342795
Y334890
Y326984
Y319079
T06
X206842Y305268
X232039
T07
X384008Y250150
X206842Y206842
X263929Y354480
X384008Y384008
M30
