G04*
G04 #@! TF.GenerationSoftware,Altium Limited,Altium Designer,20.2.3 (150)*
G04*
G04 Layer_Color=255*
%FSLAX25Y25*%
%MOIN*%
G70*
G04*
G04 #@! TF.SameCoordinates,BB737A17-BA75-4855-ABE7-94ACFEC41E84*
G04*
G04*
G04 #@! TF.FilePolarity,Positive*
G04*
G01*
G75*
%ADD16R,0.05906X0.05906*%
%ADD17R,0.03740X0.06890*%
%ADD18R,0.12598X0.06890*%
%ADD19R,0.08268X0.22047*%
%ADD20O,0.02362X0.07677*%
%ADD21O,0.07677X0.02362*%
%ADD40P,0.12784X8X22.5*%
%ADD41C,0.07087*%
%ADD42C,0.04331*%
%ADD43O,0.07874X0.03937*%
%ADD44O,0.07874X0.03937*%
%ADD45C,0.05906*%
%ADD46R,0.05906X0.05906*%
%ADD47C,0.05634*%
G04:AMPARAMS|DCode=48|XSize=82.68mil|YSize=59.06mil|CornerRadius=14.76mil|HoleSize=0mil|Usage=FLASHONLY|Rotation=90.000|XOffset=0mil|YOffset=0mil|HoleType=Round|Shape=RoundedRectangle|*
%AMROUNDEDRECTD48*
21,1,0.08268,0.02953,0,0,90.0*
21,1,0.05315,0.05906,0,0,90.0*
1,1,0.02953,0.01476,0.02657*
1,1,0.02953,0.01476,-0.02657*
1,1,0.02953,-0.01476,-0.02657*
1,1,0.02953,-0.01476,0.02657*
%
%ADD48ROUNDEDRECTD48*%
G04:AMPARAMS|DCode=49|XSize=82.68mil|YSize=59.06mil|CornerRadius=14.76mil|HoleSize=0mil|Usage=FLASHONLY|Rotation=0.000|XOffset=0mil|YOffset=0mil|HoleType=Round|Shape=RoundedRectangle|*
%AMROUNDEDRECTD49*
21,1,0.08268,0.02953,0,0,0.0*
21,1,0.05315,0.05906,0,0,0.0*
1,1,0.02953,0.02657,-0.01476*
1,1,0.02953,-0.02657,-0.01476*
1,1,0.02953,-0.02657,0.01476*
1,1,0.02953,0.02657,0.01476*
%
%ADD49ROUNDEDRECTD49*%
D16*
X283614Y212748D02*
D03*
X269835D02*
D03*
X250150Y374165D02*
D03*
X263929D02*
D03*
X277709D02*
D03*
X291488D02*
D03*
X346449Y212748D02*
D03*
D17*
X272984Y328102D02*
D03*
X263929D02*
D03*
X254874D02*
D03*
D18*
X263929Y303299D02*
D03*
D19*
X256055Y260976D02*
D03*
Y223575D02*
D03*
D20*
X293260Y254283D02*
D03*
X296409D02*
D03*
X299559D02*
D03*
X302709D02*
D03*
X305858D02*
D03*
X309008D02*
D03*
X312157D02*
D03*
X315307D02*
D03*
Y220819D02*
D03*
X312157D02*
D03*
X309008D02*
D03*
X305858D02*
D03*
X302709D02*
D03*
X299559D02*
D03*
X296409D02*
D03*
X293260D02*
D03*
D21*
X321016Y248575D02*
D03*
Y245425D02*
D03*
Y242276D02*
D03*
Y239126D02*
D03*
Y235976D02*
D03*
Y232827D02*
D03*
Y229677D02*
D03*
Y226528D02*
D03*
X287551D02*
D03*
Y229677D02*
D03*
Y232827D02*
D03*
Y235976D02*
D03*
Y239126D02*
D03*
Y242276D02*
D03*
Y245425D02*
D03*
Y248575D02*
D03*
D40*
X384008Y384008D02*
D03*
X206842Y206842D02*
D03*
X263929Y354480D02*
D03*
X384008Y250150D02*
D03*
D41*
X206842Y305268D02*
D03*
X232039D02*
D03*
D42*
X344638Y259598D02*
D03*
Y246213D02*
D03*
D43*
X218653Y229559D02*
D03*
Y219559D02*
D03*
D44*
Y224559D02*
D03*
D45*
X366449Y222748D02*
D03*
Y212748D02*
D03*
X356449Y222748D02*
D03*
Y212748D02*
D03*
X346449Y222748D02*
D03*
X224559Y246055D02*
D03*
Y256055D02*
D03*
Y266055D02*
D03*
D46*
Y276055D02*
D03*
D47*
X384008Y358606D02*
D03*
Y350701D02*
D03*
Y342795D02*
D03*
Y334890D02*
D03*
Y326984D02*
D03*
Y319079D02*
D03*
Y311173D02*
D03*
Y303268D02*
D03*
Y295362D02*
D03*
Y287457D02*
D03*
X297409D02*
D03*
Y295362D02*
D03*
Y303268D02*
D03*
Y311173D02*
D03*
Y319079D02*
D03*
Y326984D02*
D03*
Y334890D02*
D03*
Y342795D02*
D03*
Y350701D02*
D03*
Y358606D02*
D03*
D48*
X206055Y346606D02*
D03*
D49*
X224559Y358417D02*
D03*
Y334795D02*
D03*
M02*
