G04*
G04 #@! TF.GenerationSoftware,Altium Limited,Altium Designer,20.2.3 (150)*
G04*
G04 Layer_Color=8388736*
%FSLAX25Y25*%
%MOIN*%
G70*
G04*
G04 #@! TF.SameCoordinates,04B84300-0102-4E37-A102-6184F8F0BFC0*
G04*
G04*
G04 #@! TF.FilePolarity,Negative*
G04*
G01*
G75*
%ADD22R,0.04343X0.04540*%
%ADD23R,0.04540X0.07690*%
%ADD24R,0.13398X0.07690*%
%ADD25R,0.09068X0.22847*%
%ADD26O,0.03162X0.08477*%
%ADD27O,0.08477X0.03162*%
%ADD28P,0.13650X8X22.5*%
%ADD29C,0.07887*%
%ADD30C,0.05131*%
%ADD31O,0.08674X0.04737*%
%ADD32O,0.08674X0.04737*%
%ADD33C,0.06706*%
%ADD34R,0.06706X0.06706*%
%ADD35R,0.06706X0.06706*%
%ADD36C,0.06434*%
G04:AMPARAMS|DCode=37|XSize=90.68mil|YSize=67.06mil|CornerRadius=18.76mil|HoleSize=0mil|Usage=FLASHONLY|Rotation=90.000|XOffset=0mil|YOffset=0mil|HoleType=Round|Shape=RoundedRectangle|*
%AMROUNDEDRECTD37*
21,1,0.09068,0.02953,0,0,90.0*
21,1,0.05315,0.06706,0,0,90.0*
1,1,0.03753,0.01476,0.02657*
1,1,0.03753,0.01476,-0.02657*
1,1,0.03753,-0.01476,-0.02657*
1,1,0.03753,-0.01476,0.02657*
%
%ADD37ROUNDEDRECTD37*%
G04:AMPARAMS|DCode=38|XSize=90.68mil|YSize=67.06mil|CornerRadius=18.76mil|HoleSize=0mil|Usage=FLASHONLY|Rotation=0.000|XOffset=0mil|YOffset=0mil|HoleType=Round|Shape=RoundedRectangle|*
%AMROUNDEDRECTD38*
21,1,0.09068,0.02953,0,0,0.0*
21,1,0.05315,0.06706,0,0,0.0*
1,1,0.03753,0.02657,-0.01476*
1,1,0.03753,-0.02657,-0.01476*
1,1,0.03753,-0.02657,0.01476*
1,1,0.03753,0.02657,0.01476*
%
%ADD38ROUNDEDRECTD38*%
%ADD39C,0.05800*%
D22*
X279677Y212748D02*
D03*
X285583D02*
D03*
X286567Y374165D02*
D03*
X280661D02*
D03*
X259992D02*
D03*
X254087D02*
D03*
D23*
X272984Y328102D02*
D03*
X263929D02*
D03*
X254874D02*
D03*
D24*
X263929Y303299D02*
D03*
D25*
X256055Y260976D02*
D03*
Y223575D02*
D03*
D26*
X293260Y254283D02*
D03*
X296409D02*
D03*
X299559D02*
D03*
X302709D02*
D03*
X305858D02*
D03*
X309008D02*
D03*
X312157D02*
D03*
X315307D02*
D03*
Y220819D02*
D03*
X312157D02*
D03*
X309008D02*
D03*
X305858D02*
D03*
X302709D02*
D03*
X299559D02*
D03*
X296409D02*
D03*
X293260D02*
D03*
D27*
X321016Y248575D02*
D03*
Y245425D02*
D03*
Y242276D02*
D03*
Y239126D02*
D03*
Y235976D02*
D03*
Y232827D02*
D03*
Y229677D02*
D03*
Y226528D02*
D03*
X287551D02*
D03*
Y229677D02*
D03*
Y232827D02*
D03*
Y235976D02*
D03*
Y239126D02*
D03*
Y242276D02*
D03*
Y245425D02*
D03*
Y248575D02*
D03*
D28*
X384008Y384008D02*
D03*
X206842Y206842D02*
D03*
X263929Y354480D02*
D03*
X384008Y250150D02*
D03*
D29*
X206842Y305268D02*
D03*
X232039D02*
D03*
D30*
X344638Y259598D02*
D03*
Y246213D02*
D03*
D31*
X218653Y229559D02*
D03*
Y219559D02*
D03*
D32*
Y224559D02*
D03*
D33*
X366449Y222748D02*
D03*
Y212748D02*
D03*
X356449Y222748D02*
D03*
Y212748D02*
D03*
X346449Y222748D02*
D03*
X224559Y246055D02*
D03*
Y256055D02*
D03*
Y266055D02*
D03*
D34*
X346449Y212748D02*
D03*
D35*
X224559Y276055D02*
D03*
D36*
X384008Y358606D02*
D03*
Y350701D02*
D03*
Y342795D02*
D03*
Y334890D02*
D03*
Y326984D02*
D03*
Y319079D02*
D03*
Y311173D02*
D03*
Y303268D02*
D03*
Y295362D02*
D03*
Y287457D02*
D03*
X297409D02*
D03*
Y295362D02*
D03*
Y303268D02*
D03*
Y311173D02*
D03*
Y319079D02*
D03*
Y326984D02*
D03*
Y334890D02*
D03*
Y342795D02*
D03*
Y350701D02*
D03*
Y358606D02*
D03*
D37*
X206055Y346606D02*
D03*
D38*
X224559Y358417D02*
D03*
Y334795D02*
D03*
D39*
X287551Y366291D02*
D03*
X272925Y212779D02*
D03*
X259992Y366291D02*
D03*
X382039Y228496D02*
D03*
X273772Y336764D02*
D03*
X336764Y238339D02*
D03*
X328351Y242112D02*
D03*
X281646Y295425D02*
D03*
X248181D02*
D03*
X255000Y336307D02*
D03*
X303559Y261961D02*
D03*
X356892Y245934D02*
D03*
X242255Y219268D02*
D03*
X242276Y252118D02*
D03*
X279677Y244244D02*
D03*
X275371Y232066D02*
D03*
X275119Y240342D02*
D03*
X279677Y236244D02*
D03*
X276736Y251146D02*
D03*
M02*
