G04*
G04 #@! TF.GenerationSoftware,Altium Limited,Altium Designer,20.2.3 (150)*
G04*
G04 Layer_Color=65535*
%FSLAX25Y25*%
%MOIN*%
G70*
G04*
G04 #@! TF.SameCoordinates,03438412-7A25-4BEF-A10F-2466806E8FA3*
G04*
G04*
G04 #@! TF.FilePolarity,Positive*
G04*
G01*
G75*
%ADD10C,0.00787*%
%ADD11C,0.00394*%
%ADD12C,0.00984*%
%ADD13C,0.02362*%
%ADD14C,0.01000*%
%ADD15C,0.00800*%
D10*
X197000Y305268D02*
X197787D01*
X197000D01*
X344638Y240307D02*
Y239520D01*
Y240307D01*
Y239520D01*
X224559Y232354D02*
X223725Y232921D01*
X222836Y233399D01*
X221903Y233783D01*
X220935Y234069D01*
X219943Y234253D01*
X218937Y234334D01*
X217929Y234312D01*
X216928Y234185D01*
X215945Y233956D01*
X214991Y233627D01*
X214077Y233202D01*
X213211Y232684D01*
X212402Y232080D01*
X211661Y231396D01*
X210994Y230639D01*
X210408Y229817D01*
X209910Y228940D01*
X209505Y228016D01*
X209198Y227055D01*
X208991Y226067D01*
X208887Y225063D01*
Y224055D01*
X208991Y223051D01*
X209198Y222063D01*
X209505Y221102D01*
X209910Y220178D01*
X210408Y219301D01*
X210994Y218479D01*
X211661Y217722D01*
X212402Y217038D01*
X213211Y216434D01*
X214077Y215917D01*
X214991Y215491D01*
X215945Y215162D01*
X216928Y214933D01*
X217929Y214806D01*
X218938Y214784D01*
X219943Y214865D01*
X220935Y215049D01*
X221903Y215335D01*
X222836Y215719D01*
X223725Y216197D01*
X224559Y216764D01*
X286386Y358606D02*
X285598D01*
X286386D01*
X224559Y216764D02*
Y232354D01*
X352282Y207748D02*
X371449D01*
X341449D02*
X371449D01*
X341449Y227748D02*
X371449D01*
X341449Y207748D02*
Y227748D01*
X371449Y207748D02*
Y227748D01*
X219559Y241055D02*
Y281055D01*
X201226Y244389D02*
X214559D01*
X199559Y246055D02*
X201226Y244389D01*
X199559Y246055D02*
X201226Y247722D01*
X214559D01*
X201226Y254388D02*
X214559D01*
X199559Y256055D02*
X201226Y254388D01*
X199559Y256055D02*
X201226Y257722D01*
X214559D01*
X201226Y264388D02*
X214559D01*
X199559Y266055D02*
X201226Y264388D01*
X199559Y266055D02*
X201226Y267722D01*
X214559D01*
X201226Y274388D02*
X214559D01*
X199559Y276055D02*
X201226Y274388D01*
X199559Y276055D02*
X201226Y277722D01*
X214559D01*
Y281055D02*
X219559D01*
X214559Y241055D02*
X219559D01*
X214559D02*
Y281055D01*
X276724Y308811D02*
Y322590D01*
X251134Y308811D02*
X276724D01*
X251134D02*
Y322590D01*
X276724D01*
X276232Y324658D02*
Y331547D01*
X268457Y371016D02*
X275150D01*
X268457Y377315D02*
X275150D01*
X252709Y371016D02*
X259402D01*
X252709Y377315D02*
X259402D01*
X261961Y219539D02*
X265602D01*
X246508D02*
X250149D01*
X246508Y265012D02*
X250149D01*
X261961D02*
X265602D01*
X246508Y219539D02*
Y265012D01*
X265602Y219539D02*
Y265012D01*
X205169Y388732D02*
X242177D01*
X205169Y352217D02*
Y388732D01*
Y332039D02*
Y340602D01*
Y332039D02*
X219047D01*
X242177Y334697D02*
Y388732D01*
Y332039D02*
Y334697D01*
X230465Y332039D02*
X242177D01*
X293063Y226331D02*
X315504D01*
X293063Y248772D02*
X315504D01*
Y226331D02*
Y248772D01*
X293063Y226331D02*
Y248772D01*
D11*
X336193Y250937D02*
X336250Y249957D01*
X336421Y248990D01*
X336702Y248049D01*
X337091Y247147D01*
X337582Y246297D01*
X338169Y245509D01*
X338843Y244794D01*
X339595Y244163D01*
X340415Y243623D01*
X341293Y243183D01*
X342216Y242847D01*
X343171Y242620D01*
X344147Y242506D01*
X345129D01*
X346104Y242620D01*
X347060Y242847D01*
X347983Y243183D01*
X348860Y243623D01*
X349681Y244163D01*
X350433Y244794D01*
X351107Y245509D01*
X351693Y246297D01*
X352184Y247147D01*
X352573Y248049D01*
X352855Y248990D01*
X353026Y249957D01*
X353083Y250937D01*
Y254874D02*
X353026Y255854D01*
X352855Y256821D01*
X352573Y257762D01*
X352184Y258664D01*
X351693Y259515D01*
X351107Y260302D01*
X350433Y261017D01*
X349681Y261648D01*
X348860Y262188D01*
X347983Y262628D01*
X347060Y262964D01*
X346104Y263191D01*
X345129Y263305D01*
X344147D01*
X343171Y263191D01*
X342216Y262964D01*
X341293Y262628D01*
X340415Y262188D01*
X339595Y261648D01*
X338843Y261017D01*
X338169Y260302D01*
X337582Y259515D01*
X337091Y258664D01*
X336702Y257762D01*
X336421Y256821D01*
X336250Y255854D01*
X336193Y254874D01*
X207630Y312158D02*
X231252D01*
X207630Y298378D02*
X231252D01*
X336193Y250937D02*
Y254874D01*
X353083Y250937D02*
Y254874D01*
X388709Y274307D02*
Y363008D01*
X292709Y274307D02*
X388709D01*
X292709D02*
Y363008D01*
X321957Y389008D01*
X359461D01*
X388709Y363008D01*
D12*
X224461Y213417D02*
X223722Y213843D01*
Y212991D01*
X224461Y213417D01*
X279087Y374165D02*
X278348Y374592D01*
Y373739D01*
X279087Y374165D01*
X263339D02*
X262600Y374592D01*
Y373739D01*
X263339Y374165D01*
X288043Y251921D02*
X287305Y252347D01*
Y251495D01*
X288043Y251921D01*
D13*
X298181Y244835D02*
X297736Y245758D01*
X296737Y245986D01*
X295936Y245347D01*
Y244322D01*
X296737Y243683D01*
X297736Y243911D01*
X298181Y244835D01*
D14*
X197000Y393850D02*
X393850D01*
X197000Y197000D02*
Y393850D01*
Y197000D02*
X393850D01*
Y393850D01*
X312204Y270396D02*
X311704Y270896D01*
X310705D01*
X310205Y270396D01*
Y268397D01*
X310705Y267897D01*
X311704D01*
X312204Y268397D01*
X313704Y267897D02*
X314703D01*
X315203Y268397D01*
Y269397D01*
X314703Y269897D01*
X313704D01*
X313204Y269397D01*
Y268397D01*
X313704Y267897D01*
X316203Y266898D02*
Y269897D01*
X317702D01*
X318202Y269397D01*
Y268397D01*
X317702Y267897D01*
X316203D01*
X319202Y269897D02*
Y268397D01*
X319702Y267897D01*
X321201D01*
Y267397D01*
X320701Y266898D01*
X320201D01*
X321201Y267897D02*
Y269897D01*
X322201Y267897D02*
X323200D01*
X322701D01*
Y270896D01*
X322201D01*
X326200Y267897D02*
X325200D01*
X324700Y268397D01*
Y269397D01*
X325200Y269897D01*
X326200D01*
X326699Y269397D01*
Y268897D01*
X324700D01*
X328199Y267897D02*
Y270396D01*
Y269397D01*
X327699D01*
X328699D01*
X328199D01*
Y270396D01*
X328699Y270896D01*
X330698Y270396D02*
Y269897D01*
X330198D01*
X331198D01*
X330698D01*
Y268397D01*
X331198Y267897D01*
X336696D02*
X335697Y268897D01*
Y269897D01*
X336696Y270896D01*
X338196Y270396D02*
X338696Y270896D01*
X339695D01*
X340195Y270396D01*
Y269897D01*
X339195Y268897D01*
Y268397D02*
Y267897D01*
X341195D02*
X342194Y268897D01*
Y269897D01*
X341195Y270896D01*
X348692Y267897D02*
X346693D01*
X348692Y269897D01*
Y270396D01*
X348192Y270896D01*
X347193D01*
X346693Y270396D01*
X349692D02*
X350192Y270896D01*
X351191D01*
X351691Y270396D01*
Y268397D01*
X351191Y267897D01*
X350192D01*
X349692Y268397D01*
Y270396D01*
X354690Y267897D02*
X352691D01*
X354690Y269897D01*
Y270396D01*
X354190Y270896D01*
X353191D01*
X352691Y270396D01*
X355690D02*
X356190Y270896D01*
X357189D01*
X357689Y270396D01*
Y268397D01*
X357189Y267897D01*
X356190D01*
X355690Y268397D01*
Y270396D01*
X361688Y270896D02*
Y267897D01*
X362688Y268897D01*
X363687Y267897D01*
Y270896D01*
X364687Y267897D02*
X365687D01*
X365187D01*
Y269897D01*
X364687D01*
X367186Y267897D02*
X368186D01*
X367686D01*
Y270896D01*
X367186D01*
X371685D02*
Y267897D01*
X370185D01*
X369686Y268397D01*
Y269397D01*
X370185Y269897D01*
X371685D01*
X373184Y267897D02*
Y270396D01*
Y269397D01*
X372685D01*
X373684D01*
X373184D01*
Y270396D01*
X373684Y270896D01*
X375683Y267897D02*
X376683D01*
X377183Y268397D01*
Y269397D01*
X376683Y269897D01*
X375683D01*
X375184Y269397D01*
Y268397D01*
X375683Y267897D01*
X378683D02*
X379682D01*
X380182Y268397D01*
Y269397D01*
X379682Y269897D01*
X378683D01*
X378183Y269397D01*
Y268397D01*
X378683Y267897D01*
X381682Y270396D02*
Y269897D01*
X381182D01*
X382181D01*
X381682D01*
Y268397D01*
X382181Y267897D01*
X383681Y270896D02*
Y267897D01*
X384681Y268897D01*
X385680Y267897D01*
Y270896D01*
X226528Y321047D02*
X225528Y322046D01*
X223529D01*
X222529Y321047D01*
Y320047D01*
X223529Y319047D01*
X225528D01*
X226528Y318048D01*
Y317048D01*
X225528Y316048D01*
X223529D01*
X222529Y317048D01*
X228527Y316048D02*
X230526D01*
X229527D01*
Y322046D01*
X228527Y321047D01*
X357765Y258743D02*
Y253745D01*
X358765Y252745D01*
X360764D01*
X361764Y253745D01*
Y258743D01*
X363763D02*
X367762D01*
Y257743D01*
X363763Y253745D01*
Y252745D01*
X215624Y209842D02*
Y204843D01*
X216623Y203843D01*
X218623D01*
X219622Y204843D01*
Y209842D01*
X225620D02*
X221622D01*
Y206842D01*
X223621Y207842D01*
X224621D01*
X225620Y206842D01*
Y204843D01*
X224621Y203843D01*
X222621D01*
X221622Y204843D01*
X362293Y229434D02*
Y235432D01*
X365292D01*
X366291Y234432D01*
Y232433D01*
X365292Y231433D01*
X362293D01*
X368291Y229434D02*
X370290D01*
X369290D01*
Y235432D01*
X368291Y234432D01*
X213655Y284552D02*
Y290550D01*
X216654D01*
X217654Y289550D01*
Y287551D01*
X216654Y286551D01*
X213655D01*
X223652Y284552D02*
X219653D01*
X223652Y288551D01*
Y289550D01*
X222652Y290550D01*
X220653D01*
X219653Y289550D01*
X280584Y286613D02*
Y281615D01*
X281584Y280615D01*
X283583D01*
X284583Y281615D01*
Y286613D01*
X286582Y285613D02*
X287582Y286613D01*
X289581D01*
X290581Y285613D01*
Y284614D01*
X289581Y283614D01*
X288582D01*
X289581D01*
X290581Y282614D01*
Y281615D01*
X289581Y280615D01*
X287582D01*
X286582Y281615D01*
X251057Y297046D02*
Y292048D01*
X252056Y291048D01*
X254056D01*
X255055Y292048D01*
Y297046D01*
X261053Y291048D02*
X257055D01*
X261053Y295047D01*
Y296047D01*
X260054Y297046D01*
X258054D01*
X257055Y296047D01*
X267469Y386709D02*
Y380711D01*
X270467D01*
X271467Y381711D01*
Y385709D01*
X270467Y386709D01*
X267469D01*
X277465Y380711D02*
X273467D01*
X277465Y384710D01*
Y385709D01*
X276466Y386709D01*
X274466D01*
X273467Y385709D01*
X206559Y326885D02*
X204560D01*
X205559D01*
Y321886D01*
X204560Y320887D01*
X203560D01*
X202560Y321886D01*
X208558Y320887D02*
X210558D01*
X209558D01*
Y326885D01*
X208558Y325885D01*
X265056Y214275D02*
Y213275D01*
X267056Y211276D01*
X269055Y213275D01*
Y214275D01*
X267056Y211276D02*
Y208277D01*
X271055D02*
X273054D01*
X272054D01*
Y214275D01*
X271055Y213275D01*
X282733Y269099D02*
Y264101D01*
X283733Y263101D01*
X285732D01*
X286732Y264101D01*
Y269099D01*
X288731Y263101D02*
X290731D01*
X289731D01*
Y269099D01*
X288731Y268100D01*
X251767Y386657D02*
Y380659D01*
X254766D01*
X255766Y381659D01*
Y385657D01*
X254766Y386657D01*
X251767D01*
X257765Y380659D02*
X259764D01*
X258765D01*
Y386657D01*
X257765Y385657D01*
D15*
X336764Y210780D02*
X338430D01*
X337597D01*
Y215778D01*
X336764Y214945D01*
X338127Y220622D02*
X334795D01*
X338127Y223954D01*
Y224787D01*
X337295Y225620D01*
X335628D01*
X334795Y224787D01*
X377498Y215778D02*
X374165D01*
Y213279D01*
X375832Y214112D01*
X376664D01*
X377498Y213279D01*
Y211613D01*
X376664Y210780D01*
X374998D01*
X374165Y211613D01*
X377498Y225620D02*
X375832Y224787D01*
X374165Y223121D01*
Y221455D01*
X374998Y220622D01*
X376664D01*
X377498Y221455D01*
Y222288D01*
X376664Y223121D01*
X374165D01*
M02*
