G04*
G04 #@! TF.GenerationSoftware,Altium Limited,Altium Designer,20.2.3 (150)*
G04*
G04 Layer_Color=128*
%FSLAX25Y25*%
%MOIN*%
G70*
G04*
G04 #@! TF.SameCoordinates,5C18EA29-0BFF-4E7A-ABB6-DC7CBC599930*
G04*
G04*
G04 #@! TF.FilePolarity,Positive*
G04*
G01*
G75*
%ADD63C,0.00200*%
D63*
X378102Y384008D02*
X389913D01*
X384008Y378102D02*
Y389913D01*
X200937Y206842D02*
X212748D01*
X206842Y200937D02*
Y212748D01*
X258024Y354480D02*
X269835D01*
X263929Y348575D02*
Y360386D01*
X378102Y250150D02*
X389913D01*
X384008Y244244D02*
Y256055D01*
X204480Y305268D02*
X209205D01*
X206842Y302906D02*
Y307630D01*
X229677Y305268D02*
X234402D01*
X232039Y302906D02*
Y307630D01*
X343457Y259598D02*
X345819D01*
X344638Y258417D02*
Y260780D01*
X343457Y246213D02*
X345819D01*
X344638Y245031D02*
Y247394D01*
X216882Y229559D02*
X220425D01*
X218653Y227787D02*
Y231331D01*
X216882Y224559D02*
X220425D01*
X218653Y222787D02*
Y226331D01*
X216882Y219559D02*
X220425D01*
X218653Y217787D02*
Y221331D01*
X364677Y222748D02*
X368220D01*
X366449Y220976D02*
Y224520D01*
X364677Y212748D02*
X368220D01*
X366449Y210976D02*
Y214520D01*
X354677Y222748D02*
X358221D01*
X356449Y220976D02*
Y224520D01*
X354677Y212748D02*
X358221D01*
X356449Y210976D02*
Y214520D01*
X344677Y222748D02*
X348220D01*
X346449Y220976D02*
Y224520D01*
X344677Y212748D02*
X348220D01*
X346449Y210976D02*
Y214520D01*
X222787Y246055D02*
X226331D01*
X224559Y244284D02*
Y247827D01*
X222787Y256055D02*
X226331D01*
X224559Y254283D02*
Y257827D01*
X222787Y266055D02*
X226331D01*
X224559Y264283D02*
Y267827D01*
X222787Y276055D02*
X226331D01*
X224559Y274284D02*
Y277827D01*
X382197Y358606D02*
X385819D01*
X384008Y356795D02*
Y360417D01*
X382197Y350701D02*
X385819D01*
X384008Y348890D02*
Y352512D01*
X382197Y342795D02*
X385819D01*
X384008Y340984D02*
Y344606D01*
X382197Y334890D02*
X385819D01*
X384008Y333079D02*
Y336701D01*
X382197Y326984D02*
X385819D01*
X384008Y325173D02*
Y328795D01*
X382197Y319079D02*
X385819D01*
X384008Y317268D02*
Y320890D01*
X382197Y311173D02*
X385819D01*
X384008Y309362D02*
Y312984D01*
X382197Y303268D02*
X385819D01*
X384008Y301457D02*
Y305079D01*
X382197Y295362D02*
X385819D01*
X384008Y293551D02*
Y297173D01*
X382197Y287457D02*
X385819D01*
X384008Y285646D02*
Y289268D01*
X295598Y287457D02*
X299220D01*
X297409Y285646D02*
Y289268D01*
X295598Y295362D02*
X299220D01*
X297409Y293551D02*
Y297173D01*
X295598Y303268D02*
X299220D01*
X297409Y301457D02*
Y305079D01*
X295598Y311173D02*
X299220D01*
X297409Y309362D02*
Y312984D01*
X295598Y319079D02*
X299220D01*
X297409Y317268D02*
Y320890D01*
X295598Y326984D02*
X299220D01*
X297409Y325173D02*
Y328795D01*
X295598Y334890D02*
X299220D01*
X297409Y333079D02*
Y336701D01*
X295598Y342795D02*
X299220D01*
X297409Y340984D02*
Y344606D01*
X295598Y350701D02*
X299220D01*
X297409Y348890D02*
Y352512D01*
X295598Y358606D02*
X299220D01*
X297409Y356795D02*
Y360417D01*
X204087Y346606D02*
X208024D01*
X206055Y344638D02*
Y348575D01*
X222591Y358417D02*
X226528D01*
X224559Y356449D02*
Y360386D01*
X222591Y334795D02*
X226528D01*
X224559Y332827D02*
Y336764D01*
X286151Y366291D02*
X288951D01*
X287551Y364891D02*
Y367691D01*
X271525Y212779D02*
X274325D01*
X272925Y211379D02*
Y214179D01*
X258592Y366291D02*
X261392D01*
X259992Y364891D02*
Y367691D01*
X380639Y228496D02*
X383439D01*
X382039Y227096D02*
Y229896D01*
X272372Y336764D02*
X275172D01*
X273772Y335364D02*
Y338164D01*
X335364Y238339D02*
X338164D01*
X336764Y236939D02*
Y239739D01*
X326951Y242112D02*
X329751D01*
X328351Y240712D02*
Y243513D01*
X280246Y295425D02*
X283046D01*
X281646Y294025D02*
Y296825D01*
X246781Y295425D02*
X249581D01*
X248181Y294025D02*
Y296825D01*
X253600Y336307D02*
X256400D01*
X255000Y334907D02*
Y337707D01*
X302159Y261961D02*
X304959D01*
X303559Y260561D02*
Y263361D01*
X355492Y245934D02*
X358292D01*
X356892Y244534D02*
Y247334D01*
X240855Y219268D02*
X243655D01*
X242255Y217868D02*
Y220668D01*
X240876Y252118D02*
X243676D01*
X242276Y250718D02*
Y253518D01*
X278277Y244244D02*
X281077D01*
X279677Y242844D02*
Y245644D01*
X273971Y232066D02*
X276771D01*
X275371Y230666D02*
Y233466D01*
X273719Y240342D02*
X276519D01*
X275119Y238943D02*
Y241742D01*
X278277Y236244D02*
X281077D01*
X279677Y234844D02*
Y237644D01*
X275336Y251146D02*
X278136D01*
X276736Y249746D02*
Y252546D01*
M02*
