G04*
G04 #@! TF.GenerationSoftware,Altium Limited,Altium Designer,20.2.3 (150)*
G04*
G04 Layer_Color=255*
%FSLAX25Y25*%
%MOIN*%
G70*
G04*
G04 #@! TF.SameCoordinates,8FFD640F-7F79-43F8-94F3-B7E4D242D2E5*
G04*
G04*
G04 #@! TF.FilePolarity,Positive*
G04*
G01*
G75*
%ADD40P,0.12784X8X22.5*%
%ADD41C,0.07087*%
%ADD42C,0.04331*%
%ADD43O,0.07874X0.03937*%
%ADD44O,0.07874X0.03937*%
%ADD45C,0.05906*%
%ADD46R,0.05906X0.05906*%
%ADD47R,0.05906X0.05906*%
%ADD48C,0.05634*%
G04:AMPARAMS|DCode=49|XSize=82.68mil|YSize=59.06mil|CornerRadius=14.76mil|HoleSize=0mil|Usage=FLASHONLY|Rotation=90.000|XOffset=0mil|YOffset=0mil|HoleType=Round|Shape=RoundedRectangle|*
%AMROUNDEDRECTD49*
21,1,0.08268,0.02953,0,0,90.0*
21,1,0.05315,0.05906,0,0,90.0*
1,1,0.02953,0.01476,0.02657*
1,1,0.02953,0.01476,-0.02657*
1,1,0.02953,-0.01476,-0.02657*
1,1,0.02953,-0.01476,0.02657*
%
%ADD49ROUNDEDRECTD49*%
G04:AMPARAMS|DCode=50|XSize=82.68mil|YSize=59.06mil|CornerRadius=14.76mil|HoleSize=0mil|Usage=FLASHONLY|Rotation=0.000|XOffset=0mil|YOffset=0mil|HoleType=Round|Shape=RoundedRectangle|*
%AMROUNDEDRECTD50*
21,1,0.08268,0.02953,0,0,0.0*
21,1,0.05315,0.05906,0,0,0.0*
1,1,0.02953,0.02657,-0.01476*
1,1,0.02953,-0.02657,-0.01476*
1,1,0.02953,-0.02657,0.01476*
1,1,0.02953,0.02657,0.01476*
%
%ADD50ROUNDEDRECTD50*%
%ADD52R,0.03740X0.03347*%
%ADD53R,0.03937X0.03543*%
%ADD54R,0.03543X0.03150*%
%ADD55R,0.03347X0.03740*%
D40*
X384008Y384008D02*
D03*
X206842Y206842D02*
D03*
X263929Y354480D02*
D03*
X384008Y250150D02*
D03*
D41*
X206842Y305268D02*
D03*
X232039D02*
D03*
D42*
X344638Y259598D02*
D03*
Y246213D02*
D03*
D43*
X218653Y229559D02*
D03*
Y219559D02*
D03*
D44*
Y224559D02*
D03*
D45*
X366449Y222748D02*
D03*
Y212748D02*
D03*
X356449Y222748D02*
D03*
Y212748D02*
D03*
X346449Y222748D02*
D03*
X224559Y246055D02*
D03*
Y256055D02*
D03*
Y266055D02*
D03*
D46*
X346449Y212748D02*
D03*
D47*
X224559Y276055D02*
D03*
D48*
X384008Y358606D02*
D03*
Y350701D02*
D03*
Y342795D02*
D03*
Y334890D02*
D03*
Y326984D02*
D03*
Y319079D02*
D03*
Y311173D02*
D03*
Y303268D02*
D03*
Y295362D02*
D03*
Y287457D02*
D03*
X297409D02*
D03*
Y295362D02*
D03*
Y303268D02*
D03*
Y311173D02*
D03*
Y319079D02*
D03*
Y326984D02*
D03*
Y334890D02*
D03*
Y342795D02*
D03*
Y350701D02*
D03*
Y358606D02*
D03*
D49*
X206055Y346606D02*
D03*
D50*
X224559Y358417D02*
D03*
Y334795D02*
D03*
D52*
X206842Y292866D02*
D03*
Y297984D02*
D03*
X242276Y300543D02*
D03*
Y295425D02*
D03*
X364323Y238339D02*
D03*
Y233221D02*
D03*
D53*
X242276Y313142D02*
D03*
Y307827D02*
D03*
X273772Y289520D02*
D03*
Y294835D02*
D03*
X261961Y342079D02*
D03*
Y336764D02*
D03*
X336764Y226528D02*
D03*
Y231842D02*
D03*
X242276Y225839D02*
D03*
Y231153D02*
D03*
Y258024D02*
D03*
Y263339D02*
D03*
X269835Y225839D02*
D03*
Y231153D02*
D03*
Y246902D02*
D03*
Y241587D02*
D03*
D54*
X344638Y232827D02*
D03*
Y238339D02*
D03*
D55*
X254874Y374165D02*
D03*
X259992D02*
D03*
X269835D02*
D03*
X274953D02*
D03*
M02*
